# xmcd
#
# Track frame offsets:
#	150
#	13085
#	23865
#	34527
#	45305
#	55915
#	66162
#	77485
#	87952
#	99672
#	111270
#	122452
#	132285
#	142090
#	152822
#	162737
#	174777
#	187067
#	198492
#	209735
#	221782
#	235560
#	248292
#	257825
#	269222
#	280367
#	290887
#	302185
#	312937
#	322987
#	334662
#
# Disc length: 4584 seconds
#
# Revision: 1
# Processed by: cddbd v1.5.1PL0 Copyright (c) Steve Scherf et al.
# Submitted via: audiograbber 1.80
#
DISCID=d011e61f
DTITLE=Hank LOCKLIN - Please Help Me I'm Falling cd3
DYEAR=1900
DGENRE=
TTITLE0=Jealous Heart 
TTITLE1=One Has My Name (The Other Has My Heart) 
TTITLE2=I Can't Stop Loving You 
TTITLE3=Johnny My Love (Grandma's Diary) 
TTITLE4=You're The Reason 
TTITLE5=The Keeper Of The Keys 
TTITLE6=Happy Birthday To Me 
TTITLE7=I Can See An Angel 
TTITLE8=Happy Journey 
TTITLE9=I Need You Now 
TTITLE10=Welcome Home, Mister Blues 
TTITLE11=We're Gonna Go Fishin' 
TTITLE12=Rudolph, The Red-Nosed Reindeer 
TTITLE13=All The World Is Lonely Now 
TTITLE14=We Live In Two Different Worlds 
TTITLE15=Waltz Of The Wind 
TTITLE16=The Great Speckled Bird 
TTITLE17=Pins And Needles (In My Heart) 
TTITLE18=As Long As I Live 
TTITLE19=Blue Eyes Crying In The Rain 
TTITLE20=Maple On The Hill 
TTITLE21=Wabash Cannonball 
TTITLE22=The Wreck On The Highway 
TTITLE23=A Precious Jewel 
TTITLE24=Once More 
TTITLE25=Heading Down The Wrong Highway 
TTITLE26=Mansion On The Hill 
TTITLE27=They'll Never Take Her Love From Me 
TTITLE28=I Love You Because 
TTITLE29=Bummin' Around 
TTITLE30=Slowly 
EXTD=
EXTT0=
EXTT1=
EXTT2=
EXTT3=
EXTT4=
EXTT5=
EXTT6=
EXTT7=
EXTT8=
EXTT9=
EXTT10=
EXTT11=
EXTT12=
EXTT13=
EXTT14=
EXTT15=
EXTT16=
EXTT17=
EXTT18=
EXTT19=
EXTT20=
EXTT21=
EXTT22=
EXTT23=
EXTT24=
EXTT25=
EXTT26=
EXTT27=
EXTT28=
EXTT29=
EXTT30=
PLAYORDER=
